<svg version="1.0" width="2000" height="704" preserveAspectRatio="xMidYMid" xmlns="http://www.w3.org/2000/svg"><g fill="#fff"><path d="M1364.5 564.9c-6.6-.8-10.7-3-14.2-7.6l-2.8-3.6-.3-23.9-.3-23.8h14.1v44.1l2.5 2.4c3.2 3.3 12 3.6 15.6.6 2.4-1.9 2.4-2.2 2.7-24.5l.3-22.6h11.1l-.4 22.8c-.4 25.9-1 28.3-7.7 32.7-4.6 3.1-12.7 4.4-20.6 3.4zM179 531.5V498H202.7l5.1 17.3c2.8 9.4 5.4 18.4 5.7 20 1 4 1.9 3.3 3.9-3 1-3.2 3.8-12.2 6.2-20l4.5-14.3H252v67h-15v-27.7c0-15.9-.4-27.3-.9-26.7-.6.7-11.6 35.2-16.7 52.7-.4 1.3-1.6 1.7-5.4 1.7h-4.8l-1.6-4.7c-.8-2.7-4.5-14.7-8.1-26.8-3.7-12.1-7.1-22.4-7.6-22.9-.5-.6-.9 10.1-.9 26.7V565h-12zM310 564.3c0-.4 4.1-13.7 9.2-29.5l9.2-28.9 7.5.3 7.4.3 8.3 26.5c4.6 14.6 8.6 27.8 8.9 29.3l.7 2.8-6.8-.3-6.8-.3-1.6-5.5-1.6-5.5-10.1-.3-10.2-.3-1.7 6.1-1.7 6h-5.3c-3 0-5.4-.3-5.4-.7zm30.7-23.6c-.3-.7-1.7-5.5-3.3-10.6-1.5-5-3.1-8.8-3.5-8.4-.6.8-5.9 18-5.9 19.6 0 .4 3 .7 6.6.7 5.1 0 6.5-.3 6.1-1.3zM504.1 555.3c-1.6-5.4-5.9-19.7-9.6-31.8-3.6-12.1-6.8-22.8-7.1-23.7-.5-1.6.3-1.8 7.3-1.8h7.9l5.4 19.3c8.1 29.3 8.1 29.3 9 27.7.4-.8 3.3-10.3 6.4-21 3.2-10.7 6.2-21 6.7-22.7 1-3.2 1.2-3.3 7-3.3 3.2 0 5.9.2 5.9.4 0 .4-9.8 32.8-17.1 56.9l-3 9.7h-15.8zM599 535.5V506h13v59h-13zM683 541.5V518h-15v-12h43v12h-15v47h-13zM767 535.4v-29.7l16.8.5c19.4.6 23.2 1.8 26.8 8.4 4.8 8.7 3.8 16.5-2.9 22.7l-4.1 3.7 4.8 10.8c2.6 5.9 5 11.3 5.3 12 .4.9-1.3 1.2-6.5 1.2h-7l-3.2-7.7c-1.8-4.3-3.8-9.3-4.6-11-1.2-3.2-1.5-3.3-6.8-3.3H780v22h-13zm31-5.4c2.5-2.5 2.7-8.6.3-11.2-1.3-1.5-3.1-1.8-10-1.8H780v15h8c6.7 0 8.3-.3 10-2zM875 535.5V506h13v59h-13zM950 535.5v-29.6l7.2.3 7.2.3 10.1 17.5 10 17.5.3-17.7.2-17.8h10v59.1l-5.7-.3-5.7-.3-11.5-20-11.6-20-.3 20.3-.2 20.2h-10zM1057 535.5V506h41v12h-28v12h22v12h-22v11h28v12h-41zM1233 531.5v-33.8l15.3.6c8.3.4 16.7 1.1 18.6 1.6 5.3 1.6 10.7 5.8 14.5 11.4 4.9 7.4 5.9 11.5 5.4 22.1-.3 7.3-.9 10.1-3.1 14.2-3.4 6.8-8 11.2-14.6 14.2-4.7 2.2-7.1 2.5-20.7 3l-15.4.5zm30.8 18.5c9.7-5.9 11-27.1 2.1-35.6-2.6-2.5-3.9-2.9-10.4-3.2l-7.5-.4V552h6.3c4.5 0 7.1-.6 9.5-2zM1539.2 556.3c-1.2-4.9-5-20-8.6-33.6l-6.4-24.8 7.6.3 7.6.3 5 22.3c2.7 12.2 5.3 22.2 5.6 22.2.3 0 3.1-10 6.1-22.2l5.5-22.3h13.8l5.5 22.3c3.1 12.2 5.8 22.2 6.1 22.2.3 0 2.7-9.3 5.4-20.7 2.6-11.5 5-21.6 5.2-22.5.4-1.5 1.7-1.8 6.5-1.8 5.3 0 6 .2 5.5 1.8-.2.9-3.9 15.2-8.1 31.7-4.1 16.5-7.8 30.8-8.1 31.8-.5 1.5-1.6 1.7-7.7 1.5l-7.1-.3-5.6-22.5c-3.1-12.3-5.9-22-6.2-21.5-.3.6-2.9 10.8-5.7 22.8l-5.3 21.7h-14.4zM1667 535.5V506h41v12h-28v12h22v12h-22v11h28v12h-41zM1767 535.4v-29.7l17.3.5c18.4.5 20.9 1.1 25.6 6.2 1.8 1.9 2.6 4.1 2.9 7.9.4 4.7.1 5.7-2.4 8.6-1.5 1.8-3.9 3.7-5.3 4.2l-2.5 1 3.8 2.2c5.8 3.2 8.1 6.9 8.1 12.7 0 5.2-1.9 8.7-6.6 12.2-3.3 2.5-12.7 3.8-28.1 3.8H1767Zm31.8 17c1.6-1.1 2.2-2.5 2.2-5.4 0-5.7-2.4-7-12.7-7h-8.3v14h8.3c5.9 0 8.9-.5 10.5-1.6zm-.6-25.1c2.2-2 2.3-6.1.1-8.5-1.3-1.5-3.1-1.8-10-1.8h-8.3v12h8.2c6.2 0 8.6-.4 10-1.7zM174 230V130l36.2.2 36.3.3 17.5 59.7c9.6 32.9 17.7 59.5 18.1 59 .4-.4 8.9-27.4 19-60l18.2-59.2H391v200h-46l-.1-81.7c0-51-.4-81-1-79.8-.5 1.1-11.3 35.8-23.9 77-12.7 41.3-23.8 77.1-24.6 79.8l-1.6 4.7-15.5-.2-15.5-.3-23.7-78.5c-13.1-43.2-24.2-79.8-24.8-81.5-.9-2.2-1.2 17.8-1.2 78.8L213 330h-39ZM702.7 230.8c-16.3-54.6-29.7-99.6-29.7-100.1 0-.4 10.9-.6 24.2-.5l24.2.3 19.6 70c10.8 38.5 19.9 70.7 20.2 71.5.5 1.3.6 1.3 1.2 0 .3-.8 9.7-33 20.9-71.5l20.3-70 19.3-.3c18.1-.2 19.2-.1 18.7 1.5-.7 2.1-54.4 180.5-57.5 191.1l-2.2 7.2h-49.4zM1124 230V129.7l39.8.6c41.4.6 50.6 1.4 64.3 5.6 23.5 7.4 47.9 35.1 54.8 62.6 4.7 18.7 4.8 42.8.1 60.8-7.7 30.4-28.5 54.5-55.1 64.2-14.4 5.2-18.4 5.6-62.6 6.2l-41.3.6zm86.2 57.7c9.5-4.6 15.3-10.9 20.8-22.1 6.3-12.9 7.5-18.7 7.5-37.1 0-14-.3-16.9-2.3-23.5-6.4-20.3-15.9-31.4-31-36-5.2-1.6-9.3-2-21.3-2H1169v125.2l16.8-.3 16.8-.4zM1613.6 328.3c-1.3-4.2-50.6-196.6-50.6-197.4 0-.6 10-.8 23.2-.7l23.2.3 14.7 65.2c15.5 68.5 15.8 69.8 16.6 68.9.3-.3 7.8-30.5 16.7-67.3l16.2-66.8 21.2-.3 21.1-.2 1 3.7c.6 2.1 8.1 32.1 16.7 66.8 8.6 34.7 16 63.3 16.3 63.7.4.4 7.3-27.9 15.5-63 8.1-35 15.2-65.4 15.7-67.4l1-3.8h18.4c11.6 0 18.5.4 18.5 1 0 1.1-46.3 185.5-48.6 193.8l-1.5 5.2h-44.7l-16.2-65.2c-8.8-35.9-16.4-66-16.7-66.8-.6-1.6-3 7.9-21.4 84.8l-11.3 47.2h-22.2c-20.3 0-22.3-.2-22.8-1.7z"/></g><path d="M1038.717 310.48c-.393.442-.757.906-1.104 1.383l.003.003c.413-.441.83-.876 1.244-1.316-.048-.029-.096-.047-.144-.069zm-5.377 6.305c-.305.3-.624.585-.936.877.027.04.055.075.082.116.281-.334.574-.657.853-.993zm-5.397 5.727.27.27c.068-.083.138-.163.207-.245-.156-.007-.318-.017-.477-.025zm-39.414 33.605-.007.004c.007.003.013.012.02.015.002 0-.013-.017-.013-.019zm-21.002 35.451c-.095.007-.209.026-.338.051.208.039.43.057.672.047-.023-.081-.141-.11-.334-.098zm-39.015 24.34-.602.602.48.48c.018-.24.04-.483.073-.734.015-.116.033-.232.049-.348zm-5.953 26.215.001.01.273.223c.112-.05.225-.096.338-.143-.204-.03-.409-.057-.613-.09zm.734.107c-.212.171-.423.342-.639.508.016.132.026.254.032.371.39-.224.783-.483 1.183-.793l-.576-.086z" opacity=".5"/></svg>