<?xml version="1.0" encoding="utf-8"?>
<!DOCTYPE svg PUBLIC "-//W3C//DTD SVG 1.0//EN" "http://www.w3.org/TR/2001/REC-SVG-20010904/DTD/svg10.dtd">
<svg version="1.0" xmlns="http://www.w3.org/2000/svg" width="2000px" height="2000px" viewBox="0 0 2000 2000" preserveAspectRatio="xMidYMid meet">
 <g fill="#000000">
  <path d="M0 1000 l0 -1000 1000 0 1000 0 0 1000 0 1000 -1000 0 -1000 0 0 -1000z m1379.7 212.1 c2.3 -1.1 5.2 -3.5 6.5 -5.3 2.2 -3.2 2.3 -4.1 2.6 -24.5 l0.3 -21.3 -3 0 -3.1 0 0 22 c0 20.5 -0.1 22.1 -1.9 23.9 -4 4 -17.5 4.1 -21.4 0.2 -2.1 -2.1 -2.2 -3.2 -2.5 -24.1 l-0.4 -22 -4.5 0 -4.5 0 0.4 20.3 c0.3 21.7 0.7 23.5 6.1 28.5 5.8 5.5 17.3 6.5 25.4 2.3z m-1191.7 -24.1 l0 -26 3.3 0 c3.2 0 3.3 0 6 9.3 13.7 45.3 12.8 42.7 15.6 42.7 2.6 0 2.9 -0.6 10.6 -26 l8 -26 3.3 0 3.2 0 0 26 0 26 5 0 5 0 0 -30.5 0 -30.5 -9.4 0 -9.3 0 -5.9 19 -5.8 19 -3.6 0 -3.5 0 -5.5 -19 -5.5 -19 -9.7 0 -9.8 0 0 30.5 0 30.5 4 0 4 0 0 -26z m131.1 20 l1.6 -5.5 12.5 -0.3 12.5 -0.3 1.6 6.1 c1.7 5.9 1.8 6 5.2 6 1.9 0 3.5 -0.3 3.5 -0.7 0 -0.4 -1.8 -6.5 -4 -13.5 -2.2 -7 -5.8 -18.6 -8.1 -25.8 l-4 -13 -5.2 0 -5.2 0 -8 25.2 c-9.8 30.8 -9.2 28 -6.4 27.6 1.9 -0.2 2.7 -1.4 4 -5.8z m200.9 5.5 c0 -0.4 12.9 -43.3 17.6 -58.7 0.4 -1.4 -0.1 -1.8 -2.4 -1.8 l-2.9 0 -6.9 23.5 -6.8 23.5 -3.1 0 -3 0 -6.5 -23.2 -6.5 -23.3 -4.9 -0.3 c-3.7 -0.2 -4.7 0 -4.4 1 0.3 0.7 4.5 14.5 9.3 30.6 l8.8 29.2 5.9 0 c3.2 0 5.8 -0.2 5.8 -0.5z m89 -26 l0 -26.5 -4 0 -4 0 0 26.5 0 26.5 4 0 4 0 0 -26.5z m84 3 l0 -23.5 7 0 7 0 0 -3 0 -3 -18.5 0 -18.5 0 0 3 0 3 7 0 7 0 0 23.5 0 23.5 4.5 0 4.5 0 0 -23.5z m84 12.5 l0 -11 7.8 0 7.7 0 4.4 11 c4.4 10.9 4.4 11 7.8 11 1.8 0 3.3 -0.2 3.3 -0.4 0 -0.2 -1.8 -4.4 -4 -9.4 -4.5 -10.1 -5.1 -14.7 -2 -15.7 2.7 -0.9 6.8 -6.5 7.6 -10.3 0.9 -4.4 -2.8 -11.5 -7.4 -14.4 -3.3 -2.1 -5.2 -2.3 -18.4 -2.6 l-14.8 -0.4 0 26.6 0 26.6 4 0 4 0 0 -11z m108 -15.5 l0 -26.5 -4 0 -4 0 0 26.5 0 26.5 4 0 4 0 0 -26.5z m72 8 l0 -18.5 3.4 0 c3.4 0 3.5 0.2 13.9 18.3 9.8 16.9 10.7 18.2 13.6 18.5 l3.1 0.3 0 -26.5 0 -26.6 -2.5 0 -2.5 0 0 16 0 16 -3.4 0 c-3.3 0 -3.5 -0.3 -12.3 -15.7 l-9 -15.8 -4.7 -0.3 -4.6 -0.3 0 26.5 0 26.6 2.5 0 2.5 0 0 -18.5z m138 15.5 l0 -3 -14 0 -14 0 0 -8.5 0 -8.5 11 0 11 0 0 -3 0 -3 -11 0 -11 0 0 -9 0 -9 14 0 14 0 0 -3 0 -3 -18 0 -18 0 0 26.5 0 26.5 18 0 18 0 0 -3z m171.1 0.4 c13.2 -6.1 20.8 -23.1 16.4 -36.6 -2.4 -7.6 -8.2 -14.8 -14.6 -18.3 -5.1 -2.8 -6.2 -3 -19.1 -3.3 l-13.8 -0.4 0 30.7 0 30.7 13.3 -0.4 c10.7 -0.3 14.1 -0.7 17.8 -2.4z m291.5 -18.1 l4.9 -20.8 3.5 -0.3 3.5 -0.3 4.4 17.8 c6.8 27.3 5.4 24.3 11 24.3 l4.8 0 7.6 -29.9 c4.3 -16.4 7.7 -30.2 7.7 -30.5 0 -0.3 -1.3 -0.6 -2.8 -0.6 l-2.9 0 -4.8 21 -4.9 21 -3.6 0 -3.6 0 -4.3 -17.7 c-6.7 -27.1 -5.5 -24.3 -10.6 -24.3 -5.1 0 -4.1 -2.5 -10.7 25.3 l-4.3 17.8 -3.4 -0.3 -3.5 -0.3 -4.3 -19 c-2.3 -10.4 -4.5 -20 -4.8 -21.2 -0.5 -2 -1.2 -2.3 -5.1 -2.3 -3.9 0 -4.5 0.3 -4 1.8 0.3 0.9 3.7 14.1 7.6 29.2 3.9 15.1 7.3 28.1 7.5 28.8 0.3 0.7 2.3 1.2 5.3 1.2 l4.8 0 5 -20.7z m147.4 17.7 l0 -3 -14 0 -14 0 0 -8.5 0 -8.5 11 0 11 0 0 -3 0 -3 -11 0 -11 0 0 -9 0 -9 14 0 14 0 0 -3 0 -3 -18 0 -18 0 0 26.5 0 26.5 18 0 18 0 0 -3z m95.2 1.8 c5.1 -1.5 10.8 -7.8 10.8 -11.8 0 -3.5 -5 -9.7 -8.6 -10.6 -1.9 -0.5 -2.4 -1.3 -2.4 -3.9 0 -2.4 0.5 -3.5 1.8 -3.9 2.4 -0.8 6.8 -5.5 7.6 -8.2 0.7 -2.4 -2.5 -7.7 -6.7 -10.8 -2.5 -1.9 -4.5 -2.1 -18.3 -2.4 l-15.4 -0.3 0 26.5 0 26.6 13.6 0 c7.5 0 15.4 -0.5 17.6 -1.2z m-1590.2 -313.8 l0 -80 3.4 0 c2.4 0 3.6 0.5 4 1.8 0.3 0.9 10 33.2 21.6 71.7 11.6 38.5 22.3 73.7 23.6 78.3 l2.5 8.2 13.4 0 13.3 0 1.5 -4.7 c0.7 -2.7 11.7 -38.2 24.2 -79 l22.9 -74.3 3.3 0 3.3 0 0 79 0 79 21 0 21 0 0 -97 0 -97 -33.8 0 -33.7 0 -18 58.5 -18 58.5 -3.6 0 -3.6 0 -17 -58.2 -17 -58.3 -33.6 -0.3 -33.7 -0.2 0 97 0 97 16.5 0 16.5 0 0 -80z m570.8 76.3 c4.7 -15.8 56.3 -187.2 56.8 -188.6 0.5 -1.6 -0.5 -1.7 -15.6 -1.5 l-16.2 0.3 -18.4 63.5 c-10.1 34.9 -19.3 66.5 -20.4 70.3 -2 6.5 -2.2 6.7 -5.3 6.7 l-3.3 0 -18.3 -65.7 c-10.1 -36.2 -19 -67.9 -19.8 -70.5 l-1.4 -4.8 -21 0 -21.1 0 0.7 2.8 c1.1 4.6 56.7 189.6 57.2 190.5 0.2 0.4 10.4 0.7 22.7 0.7 l22.3 0 1.1 -3.7z m435.7 0.9 c32.6 -9 55.3 -33.2 64.6 -68.8 2 -7.6 2.4 -11.3 2.4 -25.9 0 -18.6 -1.1 -25.4 -6.5 -39.4 -8.3 -21.5 -30.9 -44.9 -49.2 -51 -15.3 -5.1 -18 -5.4 -61 -5.8 l-40.8 -0.5 0 97.2 0 97.1 41.3 -0.3 c38.8 -0.4 41.7 -0.5 49.2 -2.6z m455.5 -62.2 l15.5 -65 3.2 0 c2.8 0 3.3 0.4 4.1 3.3 0.5 1.7 7.8 31 16.3 65 l15.4 61.7 20.2 0 c11.2 0 20.3 -0.1 20.3 -0.2 0 -0.2 11 -43.8 24.4 -97 l24.4 -96.8 -15.8 0 -15.8 0 -3 12.8 c-1.6 7 -8.5 36.7 -15.3 66 l-12.4 53.3 -3.4 -0.3 -3.5 -0.3 -16.4 -65.7 -16.4 -65.8 -18.9 0 -18.8 0 -1 3.8 c-1.8 6.5 -31.1 127.9 -31.1 128.6 0 0.3 -1.5 0.6 -3.4 0.6 l-3.3 0 -2.7 -11.2 c-1.4 -6.2 -8.2 -35.9 -15 -66.1 -6.8 -30.1 -12.5 -55 -12.8 -55.2 -0.3 -0.3 -9.5 -0.4 -20.4 -0.3 l-20 0.3 22.2 86.5 c12.3 47.6 23.5 91.1 25 96.8 l2.7 10.2 20.1 0 20.1 0 15.5 -65z"/>
  <path d="M324 1194.3 c0 -1.6 1.3 -7.1 2.9 -12.3 2.8 -9.5 2.8 -9.5 6.3 -9.8 l3.4 -0.3 2.7 9 c1.5 4.9 2.7 10.6 2.7 12.5 l0 3.6 -9 0 -9 0 0 -2.7z"/>
  <path d="M777 1176.4 l0 -10.6 10.6 0.4 c9.7 0.3 10.7 0.5 12.5 2.7 3.8 4.7 1.7 16.1 -3.3 17.5 -1.3 0.3 -6.2 0.6 -11 0.6 l-8.8 0 0 -10.6z"/>
  <path d="M1244 1183.5 l0 -23.7 9.5 0.4 c11.2 0.5 13.7 1.8 17.5 9.4 2.1 4.1 2.5 6.3 2.5 13.9 0 7.6 -0.4 9.8 -2.5 13.9 -3.8 7.6 -6.3 8.9 -17.5 9.4 l-9.5 0.4 0 -23.7z"/>
  <path d="M1777 1199 l0 -10.2 11.1 0.4 c10.2 0.3 11.2 0.5 13 2.7 1.3 1.5 1.9 3.9 1.9 7.1 0 3.2 -0.6 5.6 -1.9 7.1 -1.8 2.2 -2.8 2.4 -13 2.7 l-11.1 0.4 0 -10.2z"/>
  <path d="M1777 1175 l0 -9 9.8 0 c12.8 0 14.2 0.9 14.2 9 0 8.1 -1.4 9 -14.2 9 l-9.8 0 0 -9z"/>
  <path d="M1166 881.6 l0 -65.6 14.3 0 c17.3 0 25.3 1.2 33.4 5 7.9 3.6 14.1 10.1 19.3 20.1 6.4 12.4 8.2 20.7 8.3 38.4 0.1 18.3 -1.6 27.1 -7.8 40 -5 10.3 -8.8 15.2 -15.1 19.6 -8.6 5.9 -14 7.1 -34.1 7.6 l-18.3 0.5 0 -65.6z"/>
 </g>
 <g fill="#ffffff">
  <path d="M1357.7 1216.6 c-4.5 -1.7 -8.2 -4.9 -10.5 -9.1 -1.4 -2.5 -1.8 -6.9 -2 -26.2 l-0.4 -23.3 7.5 0 7.5 0 0.4 21.9 c0.3 19.8 0.5 22.1 2.2 24 3.7 4.1 14.2 3.5 16.6 -0.9 0.6 -1.1 1 -11.1 1 -23.4 l0 -21.6 6.1 0 6 0 -0.3 24.3 c-0.3 23.5 -0.4 24.3 -2.6 27.5 -3.8 5.2 -9.4 7.5 -19.2 7.9 -5.7 0.2 -9.8 -0.1 -12.3 -1.1z"/>
  <path d="M177 1183.5 l0 -33.5 12.8 0 12.7 0 5.5 19 c3 10.4 5.7 19 6 19 0.3 0 3.2 -8.5 6.4 -19 l5.9 -19 12.3 0 12.4 0 0 33.5 0 33.5 -8 0 -8 0 -0.2 -25.9 -0.3 -26 -8 26 -7.9 25.9 -5.7 0 -5.6 0 -5.2 -17.2 c-2.9 -9.5 -6.5 -21.3 -8.1 -26.3 l-2.9 -9 0 26.3 -0.1 26.2 -7 0 -7 0 0 -33.5z"/>
  <path d="M308.2 1215.8 c0.3 -0.7 4.5 -14 9.4 -29.5 l8.9 -28.3 8.2 0 8.1 0 1.6 4.8 c3.2 10 16.6 53.3 16.6 53.7 0 0.3 -3.4 0.5 -7.5 0.5 l-7.5 0 -1.7 -6 -1.6 -6.1 -9.5 0.3 -9.5 0.3 -1.6 5.5 -1.7 5.5 -6.3 0.3 c-4.9 0.2 -6.2 0 -5.9 -1z m30.8 -22.5 c-0.1 -2.7 -5.8 -18.5 -6.3 -17.3 -0.3 0.8 -1.7 5.2 -3.1 9.8 l-2.4 8.2 5.9 0 c3.2 0 5.9 -0.3 5.9 -0.7z"/>
  <path d="M496.5 1187.8 c-4.9 -16.1 -9.4 -31.2 -10.1 -33.6 l-1.3 -4.3 8.7 0.3 8.6 0.3 6.6 23.3 6.6 23.3 6.8 -23.5 6.9 -23.6 7 0 c5.8 0 6.8 0.3 6.3 1.5 -0.8 2.3 -19.6 64.4 -19.6 65 0 0.3 -4 0.5 -8.8 0.5 l-8.9 0 -8.8 -29.2z"/>
  <path d="M598 1187.5 l0 -29.5 7 0 7 0 0 29.5 0 29.5 -7 0 -7 0 0 -29.5z"/>
  <path d="M681 1193.5 l0 -23.5 -7 0 -7 0 0 -6 0 -6 21.5 0 21.5 0 0 6 0 6 -7 0 -7 0 0 23.5 0 23.5 -7.5 0 -7.5 0 0 -23.5z"/>
  <path d="M766 1187.4 l0 -29.6 17.8 0.4 c16.4 0.3 18 0.5 21.4 2.6 9.9 6.1 10.5 23.3 1 29.8 l-3 2.1 4 8.9 c2.2 4.9 4.6 10.4 5.3 12.2 l1.4 3.2 -7.8 0 -7.8 0 -4.4 -11 -4.4 -11 -4.7 0 -4.8 0 0 11 0 11 -7 0 -7 0 0 -29.6z m28.3 -4.3 c3.3 -1.3 5.3 -6.4 3.9 -9.7 -1.5 -3.2 -4.9 -4.4 -12.3 -4.4 l-5.9 0 0 7.5 0 7.5 5.9 0 c3.3 0 7.1 -0.4 8.4 -0.9z"/>
  <path d="M874 1187.5 l0 -29.5 7 0 7 0 0 29.5 0 29.5 -7 0 -7 0 0 -29.5z"/>
  <path d="M949 1187.5 l0 -29.6 7.6 0.3 7.7 0.3 9.1 16 9.1 15.9 0.3 -16.2 0.2 -16.2 5.5 0 5.5 0 0 29.5 0 29.6 -6.1 -0.3 -6.1 -0.3 -10.6 -18.5 -10.7 -18.5 -0.3 18.8 -0.2 18.7 -5.5 0 -5.5 0 0 -29.5z"/>
  <path d="M1056 1187.5 l0 -29.5 21 0 21 0 0 6 0 6 -14 0 -14 0 0 6 0 6 11 0 11 0 0 6 0 6 -11 0 -11 0 0 5.5 0 5.5 14 0 14 0 0 6 0 6 -21 0 -21 0 0 -29.5z"/>
  <path d="M1232 1183.5 l0 -33.7 16.8 0.4 c16.3 0.3 16.8 0.4 22.1 3.3 10.9 6 16.7 17.5 15.9 31.8 -0.7 13.7 -7.1 24.2 -17.7 29.1 -4 1.8 -6.9 2.1 -20.8 2.4 l-16.3 0.4 0 -33.7z m30.9 17.8 c1.4 -1 3.7 -4 5 -6.6 4.7 -9.4 2.2 -23.8 -5 -29 -1.7 -1.2 -5 -2.1 -9.3 -2.4 l-6.6 -0.6 0 20.8 0 20.8 6.6 -0.6 c4.3 -0.3 7.6 -1.2 9.3 -2.4z"/>
  <path d="M1539.5 1215.8 c-1 -2.9 -16.5 -63.7 -16.5 -64.7 0 -0.7 2.9 -1.1 8 -1.1 7.4 0 8 0.1 8.5 2.3 0.3 1.2 2.3 10.3 4.5 20.2 2.3 9.9 4.3 18.7 4.7 19.5 0.4 1 9.7 -33.3 11.3 -41.7 0 -0.2 3.4 -0.3 7.5 -0.3 l7.4 0 0.9 3.3 c0.5 1.7 2.9 11.2 5.3 21 2.4 9.7 4.6 17.7 4.9 17.7 0.3 0 2.8 -9.4 5.5 -21 l4.8 -21 6.8 0 6.7 0 -8.4 32.8 c-4.6 18 -8.4 33 -8.4 33.5 0 0.4 -3.6 0.7 -8 0.7 l-7.9 0 -0.9 -3.2 c-0.5 -1.8 -2.9 -11.3 -5.3 -21 -2.4 -9.8 -4.6 -17.4 -5 -17 -0.4 0.4 -2.8 9.8 -5.5 21 l-4.8 20.2 -7.8 0 c-5.4 0 -8 -0.4 -8.3 -1.2z"/>
  <path d="M1666 1187.5 l0 -29.5 21 0 21 0 0 6 0 6 -14 0 -14 0 0 6 0 6 11 0 11 0 0 6 0 6 -11 0 -11 0 0 5.5 0 5.5 14 0 14 0 0 6 0 6 -21 0 -21 0 0 -29.5z"/>
  <path d="M1766 1187.4 l0 -29.5 18.4 0.3 c20.5 0.3 21.4 0.6 26.4 7.9 1.9 2.7 2.3 4.3 1.9 8.2 -0.4 5 -2.3 7.8 -7 10.7 l-2.8 1.8 2.3 0.5 c6.1 1.6 10.6 10.7 8.8 17.7 -1.1 4.3 -6.2 9.3 -10.9 10.9 -2 0.6 -10.4 1.1 -20.2 1.1 l-16.9 0 0 -29.6z m32.1 15.7 c1 -1.3 1.9 -3.1 1.9 -4.1 0 -1 -0.9 -2.8 -1.9 -4.1 -1.7 -2.1 -3 -2.4 -10 -2.7 l-8.1 -0.4 0 7.2 0 7.2 8.1 -0.4 c7 -0.3 8.3 -0.6 10 -2.7z m-2.3 -23.7 c1.4 -1 2.2 -2.6 2.2 -4.4 0 -4.3 -3.1 -6 -11.2 -6 l-6.8 0 0 6 0 6 6.8 0 c4.5 0 7.5 -0.5 9 -1.6z"/>
  <path d="M174 882 l0 -100 36.7 0.2 36.6 0.3 17 58.3 c9.4 32 17.3 58.2 17.6 58.2 0.3 0 8.7 -26.3 18.6 -58.5 l18 -58.5 36.7 0 36.8 0 0 100 0 100 -24 0 -24 0 -0.2 -79.2 -0.3 -79.1 -22.9 74.4 c-12.6 40.9 -23.6 76.5 -24.3 79.2 l-1.5 4.7 -16.3 0 -16.4 0 -2.5 -8.2 c-1.3 -4.6 -12 -39.8 -23.5 -78.3 -11.6 -38.5 -21.5 -70.9 -22 -72 -0.6 -1.2 -1 28.6 -1 78.3 l-0.1 80.2 -19.5 0 -19.5 0 0 -100z"/>
  <path d="M731.7 981.3 c-0.5 -0.9 -59.7 -198 -59.7 -198.8 0 -0.3 11.2 -0.5 25 -0.5 l24.9 0 1.4 4.7 c0.8 2.7 9.7 34.4 19.8 70.6 12.6 45.2 18.6 65.2 19.2 64 0.4 -1 9.7 -32.6 20.6 -70.3 l19.9 -68.5 20.1 -0.3 c15.9 -0.2 20 0 19.6 1 -1 3 -59.5 197.7 -59.5 198.2 0 0.9 -50.8 0.7 -51.3 -0.1z"/>
  <path d="M1123 882 l0 -100.2 43.8 0.5 c46.3 0.4 48.5 0.6 64 5.8 18.3 6.1 40.9 29.5 49.2 51 5.6 14.5 6.5 20.5 6.5 42.4 0 17.8 -0.3 21 -2.4 28.9 -9.4 35.7 -32 59.8 -64.6 68.8 -7.6 2.1 -10.3 2.2 -52.2 2.6 l-44.3 0.3 0 -100.1z m82.2 59.2 c12 -4.3 18.5 -10.6 25.3 -24.7 5.8 -12 7.9 -21.9 7.8 -37 -0.1 -14.5 -2.3 -23.9 -8.3 -35.4 -9.8 -18.9 -22.1 -25.1 -49.7 -25.1 l-11.3 0 0 62.6 0 62.7 15.3 -0.6 c11.8 -0.4 16.5 -0.9 20.9 -2.5z"/>
  <path d="M1613 981.6 c0 -0.2 -11.5 -45 -25.5 -99.5 -14 -54.5 -25.5 -99.3 -25.5 -99.6 0 -0.3 10.8 -0.5 23.9 -0.5 22 0 24 0.1 24.5 1.8 0.3 0.9 6.8 29.6 14.5 63.7 13.2 58.4 15.8 69.2 16 67.1 0.1 -0.9 29.6 -123 31.2 -128.8 l1 -3.8 21.8 0 21.9 0 16.2 65.2 c9 35.9 16.6 65.6 16.9 66 0.3 0.4 6.2 -23.2 13 -52.5 6.8 -29.3 13.7 -58.9 15.3 -65.9 l3 -12.8 19.4 0 c10.7 0 19.4 0.3 19.4 0.6 0 0.5 -45.5 181.6 -49.1 195.7 l-1 3.7 -23.2 0 -23.2 0 -15.9 -63.7 c-8.7 -35.1 -16.2 -64.3 -16.5 -65 -0.3 -0.6 -7.6 28 -16.1 63.8 l-15.5 64.9 -23.2 0 c-12.8 0 -23.3 -0.2 -23.3 -0.4z"/>
 </g>
</svg>