<?xml version="1.0" encoding="utf-8"?>
<!DOCTYPE svg PUBLIC "-//W3C//DTD SVG 1.0//EN" "http://www.w3.org/TR/2001/REC-SVG-20010904/DTD/svg10.dtd">
<svg version="1.0" xmlns="http://www.w3.org/2000/svg" width="800px" height="485px" viewBox="0 0 800 485" preserveAspectRatio="xMidYMid meet">
 <g fill="#ffffff">
  <path d="M3 335 l0 -16 5.4 0 5.4 0 2 6.8 c1.2 3.7 2.4 7.9 2.7 9.5 0.4 1.5 1.1 2.7 1.6 2.7 0.4 0 2.1 -4.2 3.8 -9.2 l2.9 -9.3 5.6 -0.3 5.6 -0.3 0 16.1 0 16 -3.5 0 -3.5 0 0 -13 c0 -7.1 -0.3 -13 -0.7 -13 -0.5 0 -2.6 5.9 -4.7 13 -3.4 11.3 -4.2 13 -6 13 -1.7 0 -2.4 -1.2 -3.9 -6.3 -4.7 -15.9 -6 -19.7 -6.8 -19.7 -0.5 0 -0.9 5.9 -0.9 13 l0 13 -2.5 0 -2.5 0 0 -16z"/>
  <path d="M67.3 349.3 c0.2 -1 2.2 -7.3 4.3 -14 l3.8 -12.3 3.3 0 3.2 0 3.5 11.3 c5.3 17.1 5.3 16.7 2.3 16.7 -1.9 0 -2.8 -0.7 -3.6 -3 -0.9 -2.8 -1.3 -3 -6.1 -3 -4.8 0 -5.2 0.2 -6.1 3 -1.2 3.3 -5.6 4.5 -4.6 1.3z m13.9 -8.9 c0.8 -0.7 -2.4 -10.4 -3.3 -10.4 -0.9 0 -3.7 9.2 -3.2 10.3 0.5 0.8 5.7 1 6.5 0.1z"/>
  <path d="M159.5 342.3 c-1.5 -4.9 -3.7 -12.1 -5 -16.1 l-2.3 -7.3 3.6 0.3 3.6 0.3 3 11 c1.6 6.1 3.1 11.2 3.3 11.5 0.8 0.9 2.1 -2.5 4.9 -12.6 2.7 -9.9 3 -10.4 5.6 -10.4 l2.7 0 -1.4 4.3 c-0.8 2.3 -3 9.5 -5 16 l-3.6 11.7 -3.4 0 -3.4 0 -2.6 -8.7z"/>
  <path d="M207 337 l0 -14 2.5 0 2.5 0 0 14 0 14 -2.5 0 -2.5 0 0 -14z"/>
  <path d="M247 339.5 l0 -11.5 -3.5 0 c-3.1 0 -3.5 -0.3 -3.5 -2.5 l0 -2.5 10 0 10 0 0 2.5 c0 2.2 -0.4 2.5 -3.5 2.5 l-3.5 0 0 11.5 0 11.5 -3 0 -3 0 0 -11.5z"/>
  <path d="M288 336.9 l0 -14.2 8.5 0.5 c7.1 0.4 9 0.8 10.7 2.6 3 2.9 2.9 8.4 0 11.5 l-2.3 2.4 2.5 5.7 2.5 5.7 -3.1 -0.3 c-2.7 -0.3 -3.3 -0.9 -5.1 -5.6 -1.9 -5 -2.2 -5.3 -5.1 -5 -3 0.3 -3.1 0.4 -3.1 5.6 0 5 -0.1 5.2 -2.7 5.2 l-2.8 0 0 -14.1z m14.8 -2.1 c1.9 -1.9 1.4 -5.6 -0.8 -6.8 -1.2 -0.6 -3.5 -1 -5.3 -0.8 -2.7 0.2 -3.3 0.8 -3.5 3.1 -0.2 1.6 -0.1 3.5 0.2 4.3 0.7 1.7 7.7 1.9 9.4 0.2z"/>
  <path d="M340 337 l0 -14 3 0 3 0 0 14 0 14 -3 0 -3 0 0 -14z"/>
  <path d="M377 337 l0 -14 2.9 0 c2.6 0 3.4 0.9 7.7 8.5 2.7 4.7 5.2 8.5 5.7 8.5 0.4 0 0.7 -3.8 0.7 -8.5 0 -7.8 0.2 -8.5 2 -8.5 1.9 0 2 0.7 2 14 l0 14 -2.5 0 c-2 0 -3.2 -1.3 -6.7 -7.6 -2.4 -4.2 -5.1 -8.6 -6 -9.8 -1.7 -2 -1.7 -1.7 -1.8 7.7 0 9 -0.1 9.7 -2 9.7 -1.9 0 -2 -0.7 -2 -14z"/>
  <path d="M429 337 l0 -14 9.5 0 c9.5 0 9.5 0 9.5 2.5 0 2.4 -0.2 2.5 -7 2.5 l-7 0 0 3.5 0 3.5 5.5 0 c5.2 0 5.5 0.1 5.5 2.5 0 2.4 -0.3 2.5 -5.5 2.5 -5.4 0 -5.5 0 -5.5 3 l0 3 7 0 c6.8 0 7 0.1 7 2.5 0 2.5 0 2.5 -9.5 2.5 l-9.5 0 0 -14z"/>
  <path d="M514 335 l0 -16.3 8.1 0.6 c4.8 0.4 9.2 1.3 10.6 2.2 4.1 2.7 6.3 7.4 6.3 13.5 0 10.3 -5.2 15 -17.7 15.8 l-7.3 0.5 0 -16.3z m15.9 7.8 c2.7 -2.9 3.6 -7.8 2.1 -12.2 -1.4 -4.2 -3.5 -5.6 -8.4 -5.6 l-3.6 0 0 10 0 10 4 0 c2.7 0 4.5 -0.6 5.9 -2.2z"/>
  <path d="M573.4 349.8 c-3.4 -1.6 -4.4 -5.2 -4.4 -16.3 l0 -10.5 3 0 3 0 0 11 c0 9.8 0.2 11 1.9 12 2.8 1.4 5.7 1.2 7.5 -0.6 1.3 -1.2 1.6 -3.8 1.6 -12 0 -9.7 0.1 -10.4 2 -10.4 1.9 0 2 0.7 2 10.9 0 6 -0.3 11.7 -0.6 12.6 -1.5 3.8 -11 5.8 -16 3.3z"/>
  <path d="M659.6 336.8 c-2 -7.9 -3.9 -15.1 -4.2 -16 -0.4 -1.5 0.1 -1.8 2.8 -1.8 3.4 0 3.4 0.1 4.7 6.3 2.8 13.8 3.3 15.7 4 15.7 0.4 0 1.5 -3.4 2.5 -7.6 3.4 -14.5 3.4 -14.4 6.5 -14.4 2.8 0 2.9 0.2 5.6 11 1.5 6.1 3 11 3.4 11 0.3 0 1.7 -4.8 3.1 -10.8 2.2 -9.4 2.8 -10.7 4.8 -11 1.2 -0.2 2.2 0 2.2 0.5 0 0.4 -1.6 7.7 -3.7 16.1 l-3.7 15.2 -3.2 0 -3.2 0 -2.3 -9.5 c-2.3 -9.3 -3.4 -12.4 -4.2 -11.5 -0.2 0.3 -1.5 5 -2.9 10.5 -2.3 9.8 -2.5 10 -5.4 10.3 l-3.1 0.3 -3.7 -14.3z"/>
  <path d="M724 337 l0 -14 9.5 0 c9.5 0 9.5 0 9.5 2.5 0 2.4 -0.2 2.5 -6.5 2.5 l-6.5 0 0 3.5 0 3.5 5 0 c4.7 0 5 0.2 5 2.5 0 2.3 -0.3 2.5 -5 2.5 -4.9 0 -5 0.1 -5 3 l0 3 6.5 0 c6.3 0 6.5 0.1 6.5 2.5 0 2.5 0 2.5 -9.5 2.5 l-9.5 0 0 -14z"/>
  <path d="M773 337 l0 -14.3 8.7 0.5 c7.4 0.4 8.9 0.8 10.5 2.7 2.5 3.2 2.3 6.7 -0.6 8.6 l-2.4 1.6 2.9 2.9 c3.5 3.5 3.6 5.1 0.6 8.6 -2.2 2.5 -3.1 2.8 -11 3.2 l-8.7 0.5 0 -14.3z m15.5 5.5 c0 -2.9 -0.2 -3 -5.2 -3.3 l-5.3 -0.3 0 3.6 0 3.6 5.3 -0.3 c5 -0.3 5.2 -0.4 5.2 -3.3z m-0.6 -9.9 c2.5 -3 -1.5 -6.2 -7 -5.4 -1.9 0.2 -2.5 1 -2.7 3.6 -0.3 3.2 -0.3 3.2 4.1 3.2 2.6 0 4.9 -0.6 5.6 -1.4z"/>
  <path d="M1 185 l0 -48 17 0 16.9 0 3 9.8 c1.7 5.3 5.5 18.2 8.5 28.5 5.1 17.7 6.1 20.7 6.9 19.6 0.2 -0.2 2.4 -7.1 4.9 -15.4 2.6 -8.2 6.6 -21.2 8.9 -28.7 l4.2 -13.8 16.9 0 16.8 0 0 48 0 48 -10.5 0 -10.5 0 0 -39 c0 -21.4 -0.4 -39 -0.8 -39 -0.7 0 -9.3 27 -20.6 64.3 l-4.1 13.7 -7.4 -0.2 -7.4 -0.3 -6.3 -21 c-3.6 -11.6 -8.7 -28.6 -11.5 -38 -2.9 -9.3 -5.6 -17.4 -6 -17.9 -0.5 -0.6 -0.9 16 -0.9 38.2 l0 39.2 -9 0 -9 0 0 -48z"/>
  <path d="M257.2 185.7 c-7.8 -26 -14.2 -47.6 -14.2 -48 0 -0.4 5 -0.6 11.1 -0.5 l11.2 0.3 9.6 34.2 c5.3 18.9 9.9 34.3 10.3 34.3 0.8 0 3.1 -7.3 12.3 -39.5 3.6 -12.6 7 -24.5 7.6 -26.3 l1.1 -3.2 8.8 0 8.8 0 -4.8 15.7 c-13.9 45.7 -21 69.4 -22.5 74.6 l-1.6 5.7 -11.8 0 -11.7 0 -14.2 -47.3z"/>
  <path d="M461 185.1 l0 -48.1 13.8 0 c31.4 0.1 40.8 2.6 51.1 13.6 10 10.7 13.8 22.1 12.8 38.2 -0.6 10.7 -2.9 17.9 -8.2 25.7 -4.6 6.9 -11.7 12.6 -19.5 15.7 -4.9 2 -7.8 2.2 -27.7 2.6 l-22.3 0.4 0 -48.1z m42.8 27.9 c17.6 -9.9 17.5 -47.1 -0.1 -56.2 -3.1 -1.6 -6.6 -2.3 -12.9 -2.6 l-8.8 -0.4 0 31.2 0 31.2 8.8 -0.4 c6.8 -0.3 9.6 -0.9 13 -2.8z"/>
  <path d="M694.6 217.8 c-2.2 -8.4 -7.7 -29.7 -12.3 -47.3 -4.5 -17.6 -8.3 -32.3 -8.3 -32.7 0 -0.5 4.9 -0.8 10.8 -0.8 l10.8 0 5.3 23.8 c3 13 6.2 27.6 7.3 32.5 1.1 4.8 2.4 8.7 2.8 8.7 0.7 0 13.6 -51 15.5 -61.3 l0.7 -3.8 10.1 0.3 10.1 0.3 7.9 32 c4.4 17.6 8.2 32.2 8.3 32.4 0.9 1.1 1.9 -1.7 4.5 -13.6 1.6 -7 5 -21.5 7.5 -32.1 l4.6 -19.2 8.4 0 c4.6 0 8.4 0.4 8.4 0.8 0 0.9 -22.5 90.1 -23.6 93.4 -0.5 1.6 -1.8 1.8 -10.9 1.8 l-10.4 0 -1 -3.7 c-0.6 -2.1 -3.7 -14.8 -7.1 -28.3 -8.5 -34 -8.1 -32.6 -8.9 -31 -0.5 0.8 -4.1 15.3 -8.2 32.2 l-7.4 30.8 -10.5 0 -10.5 0 -3.9 -15.2z"/>
 </g>
</svg>