<?xml version="1.0" encoding="utf-8"?>
<!DOCTYPE svg PUBLIC "-//W3C//DTD SVG 1.0//EN" "http://www.w3.org/TR/2001/REC-SVG-20010904/DTD/svg10.dtd">
<svg version="1.0" xmlns="http://www.w3.org/2000/svg" width="1200px" height="122px" viewBox="0 0 1200 122" preserveAspectRatio="xMidYMid meet">
 <g fill="#ffffff">
  <path d="M836.5 117.4 c-19.8 -1.7 -31 -9.7 -35 -25.1 -1.2 -4.6 -1.5 -13.5 -1.5 -45.5 l0 -39.8 12.9 0 13 0 0.3 39.7 c0.3 37.8 0.4 40 2.3 43.3 5.8 9.9 26.1 10.7 33.3 1.2 l2.7 -3.5 0.3 -40.4 0.3 -40.3 21.9 0 22 0 0.5 2.8 c0.4 1.5 1.5 6.3 2.5 10.7 1 4.4 2.5 11.2 3.4 15 0.8 3.9 2.4 11.1 3.5 16 6.7 29.6 7.5 31.9 8.5 27.5 0.4 -1.4 1.7 -7 3 -12.5 1.3 -5.5 3.7 -15.2 5.2 -21.5 1.5 -6.3 4.2 -17.3 5.9 -24.5 l3.2 -13 11.4 0 11.4 0 9.2 36.5 c5 20.1 9.2 36.7 9.3 37 0.3 1.2 2.2 -5 3.6 -11.5 0.8 -3.8 2.8 -12.4 4.3 -19 1.6 -6.6 4.5 -19.1 6.6 -27.7 l3.7 -15.8 48.4 0 48.4 0 0 10 0 10 -26 0 -26 0 0 12 0 12 20.5 0 20.5 0 0 10 0 10 -20.5 0 -20.5 0 0 12 0 12 26 0 26 0 0 10.5 0 10.5 -38.5 0 -38.5 0 0 -53.2 c0 -32.8 -0.4 -52.7 -1 -51.8 -0.5 0.8 -1.8 5.7 -3 11 -1.2 5.2 -3 12.4 -4 16 -1 3.6 -5.8 22.6 -10.7 42.2 l-8.8 35.8 -12 0 -12 0 -8.9 -36 c-4.9 -19.9 -9.2 -36.3 -9.6 -36.5 -0.4 -0.3 -2.2 5.7 -4 13.3 -6.9 29.6 -10.1 43 -12 50.5 -1.1 4.3 -2 8 -2 8.2 0 0.3 -5.4 0.5 -12 0.5 l-12 0 -0.6 -2.7 c-0.3 -1.6 -1.5 -5.9 -2.5 -9.8 -3.1 -12.3 -13.9 -54.5 -18 -70.4 -2.1 -8.5 -4.1 -15.6 -4.4 -15.9 -0.3 -0.3 -0.5 14.1 -0.5 31.9 -0.1 48.8 -2 55.3 -18.5 63.6 -6.3 3.3 -21.2 5.5 -31 4.7z"/>
  <path d="M12 61.5 l0 -54.5 19 0 c18.8 0 19.1 0 19.9 2.2 0.5 1.3 4.9 15.9 9.7 32.6 4.8 16.6 9 30.2 9.4 30.2 0.4 0 1.7 -3.3 2.9 -7.2 1.2 -4 2.6 -8.4 3.1 -9.8 0.4 -1.4 2.2 -7 3.9 -12.5 1.6 -5.5 4.6 -15.1 6.5 -21.4 2 -6.2 3.6 -11.9 3.6 -12.7 0 -1.1 3.6 -1.4 20 -1.4 l20 0 0.2 51.8 0.3 51.7 5.3 -16.5 c2.9 -9.1 8 -24.6 11.2 -34.5 11.5 -35.5 16 -50.1 16 -51.3 0 -1 3.5 -1.2 14.7 -1 l14.7 0.3 1.7 5 c0.9 2.8 3.3 10.4 5.4 17 5.1 16.7 11.4 37.1 13.2 42.5 2 6.1 13.3 43.2 13.3 43.6 0 0.2 -5.8 0.4 -12.9 0.4 l-12.9 0 -3.3 -12 -3.4 -12 -18.5 0.2 -18.4 0.3 -0.7 3 c-0.4 1.7 -1.8 6.8 -3.2 11.5 l-2.4 8.5 -22.7 0.3 -22.6 0.2 0 -45.2 c-0.1 -32.4 -0.4 -44.8 -1.1 -43.5 -0.6 1 -2.6 6.9 -4.4 13 -1.9 6.2 -4.5 15 -6 19.7 -3.5 11.3 -8.5 27.8 -12.9 42.5 -2 6.5 -4 12.3 -4.5 12.8 -0.4 0.4 -4.3 0.7 -8.6 0.5 l-7.7 -0.3 -2 -6.5 c-1.1 -3.6 -3.1 -10.3 -4.5 -15 -1.3 -4.7 -4 -13.4 -5.8 -19.5 -1.8 -6 -4.7 -15.5 -6.3 -21 -1.7 -5.5 -4.3 -14 -5.9 -19 l-2.8 -9 -0.3 45.3 -0.2 45.2 -10 0 -10 0 0 -54.5z m174.4 11.9 c1.1 -0.4 1.3 -1.1 0.6 -2.7 -0.5 -1.2 -2.1 -6.2 -3.6 -11.2 -1.4 -4.9 -3.2 -10.8 -3.9 -13 -0.7 -2.2 -1.8 -6 -2.5 -8.4 -0.6 -2.4 -1.5 -4 -2 -3.5 -0.4 0.5 -1.9 4.7 -3.3 9.4 -1.4 4.7 -3.9 13 -5.5 18.5 -1.7 5.4 -2.8 10.3 -2.6 10.7 0.6 0.9 20.5 1.1 22.8 0.2z"/>
  <path d="M244.2 107.8 c-1.3 -4.6 -2.9 -10.3 -3.7 -12.8 -8 -26.6 -11 -36.7 -13 -43.5 -1.3 -4.4 -3.3 -11.1 -4.5 -15 -2.6 -8.3 -4.8 -15.9 -6 -20 -0.5 -1.6 -1.3 -4.5 -1.9 -6.3 l-1 -3.3 13.2 0.3 13.1 0.3 0.7 3 c0.4 1.7 1.4 5.7 2.4 9 0.9 3.3 2 7.4 2.5 9 0.7 2.5 3.8 13.7 7 25 0.4 1.7 2 7.3 3.4 12.5 4.2 15.6 5.1 18.2 6.1 18.1 0.6 -0.1 2 -3.8 3.3 -8.4 3.7 -12.8 3.9 -13.6 6.7 -23.2 1.5 -4.9 3 -10.3 3.5 -12 0.5 -1.6 2.8 -9.9 5.1 -18.2 l4.4 -15.3 88.5 0 c92.5 0.1 94.6 0.2 102.8 4.4 8.7 4.5 14.4 14.3 15 25.8 0.7 12.9 -3.6 21.6 -13.5 27.3 -6 3.5 -5.8 3.2 -4.6 4.7 0.5 0.7 1.6 2.9 2.3 4.8 0.7 1.9 2.1 5.3 3 7.5 3.8 8.7 14 33.5 14 34 0 0.3 -6 0.5 -13.4 0.5 -13.1 0 -13.5 -0.1 -14.1 -2.2 -0.4 -1.3 -4.1 -11.2 -8.3 -22 l-7.5 -19.8 -9.9 0 -9.8 0 0 22 0 22 -12 0 -12 0 0 -44 0 -44 -13.5 0 -13.5 0 0 44 0 44 -12.5 0 -12.5 0 0 -44 0 -44 -13 0 -13 0 0 44 0 44 -12 0 -12 0 0 -50.2 c0 -27.6 -0.3 -49.9 -0.6 -49.5 -0.3 0.3 -3.1 8.8 -6.1 18.9 -3 10.1 -7.5 25.1 -10 33.3 -2.5 8.3 -5.1 17 -5.8 19.5 -0.7 2.5 -2.9 9.7 -4.8 16 l-3.4 11.5 -13.4 0.3 -13.4 0.3 -2.3 -8.3z m215.7 -55.4 c8.8 -5.2 9.6 -18 1.5 -24.3 -2.4 -1.9 -4 -2.1 -17 -2.1 l-14.4 0 0 14 0 14 13.6 0 c10.6 0 14.2 -0.3 16.3 -1.6z"/>
  <path d="M500 61.5 l0 -54.5 12 0 12 0 0 54.5 0 54.5 -12 0 -12 0 0 -54.5z"/>
  <path d="M534 61.5 l0 -54.5 13.4 0 13.4 0 7.9 13.7 c4.4 7.6 12.9 22.3 18.9 32.7 l10.9 18.9 0.3 -32.6 0.2 -32.7 9 0 9 0 0 54.5 0 54.5 -10.3 0 -10.3 0 -3.7 -6.7 c-2.1 -3.8 -5.5 -9.7 -7.6 -13.3 -4 -6.8 -20.9 -36.1 -26.8 -46.5 -1.9 -3.3 -3.9 -6.4 -4.4 -6.9 -0.5 -0.6 -0.9 13.3 -0.9 36.2 l0 37.2 -9.5 0 -9.5 0 0 -54.5z"/>
  <path d="M627 61.5 l0 -54.5 38.5 0 38.5 0 0 10 0 10 -26 0 -26 0 0 12 0 12 20.5 0 20.5 0 0 10 0 10 -20.5 0 -20.5 0 0 12 0 12 26 0 26 0 0 10.5 0 10.5 -38.5 0 -38.5 0 0 -54.5z"/>
  <path d="M708 61.6 l0 -54.6 21.8 0 c31.5 0.1 39.7 2.4 51 14.5 10.2 10.8 15.1 23.7 15.1 39 0 19.9 -8.9 38.6 -22.6 47.3 -10 6.3 -15.3 7.4 -41.5 7.9 l-23.8 0.6 0 -54.7z m44.1 32.9 c6.6 -2.4 12.4 -8.6 15.6 -16.9 2.2 -5.9 2.7 -8.7 2.7 -16.6 0 -10 -1.5 -15.7 -6 -23.1 -5.2 -8.4 -10.9 -10.9 -24.6 -10.9 l-8.8 0 0 33.8 c0 18.6 0.3 34.2 0.7 34.5 1.3 1.3 16.1 0.7 20.4 -0.8z"/>
  <path d="M1105 61.6 l0 -54.6 29.3 0 c31.1 0 35.6 0.5 43.6 5.1 5.4 3 9.6 8.4 11.5 14.9 2 6.7 2 8.3 0 14.9 -1.8 6.3 -7.5 12.2 -14 14.7 -5 1.9 -4.9 2.3 1.7 4.8 5.6 2 11 7.2 14 13.5 1.7 3.5 2.2 6.3 2.2 11.8 -0.1 12.4 -6.9 21.5 -19.5 26.2 -6 2.3 -7.7 2.4 -37.5 2.9 l-31.3 0.4 0 -54.6z m57.4 32.9 c7.9 -5.3 7.1 -19.4 -1.5 -23.7 -2.8 -1.5 -6.1 -1.8 -17.6 -1.8 l-14.3 0 0 14.1 0 14.1 15.3 -0.4 c13 -0.3 15.6 -0.6 18.1 -2.3z m-1 -47.4 c5.7 -5.4 5.5 -14.9 -0.4 -19.1 -2.5 -1.8 -4.4 -2 -17.4 -2 l-14.6 0 0 12.1 0 12.1 14.9 -0.4 c14.2 -0.3 15.1 -0.4 17.5 -2.7z"/>
 </g>
</svg>